<svg aria-hidden="true" style="position:absolute;width:0;height:0;overflow:hidden" xmlns="http://www.w3.org/2000/svg">
  <defs>
    <symbol id="icon-triangle" viewBox="0 0 59 32">
      <path d="m24.35 8 2.44 2.3h-4.53v11.2H34.1v-4.28l2.43 2.3V8H24.35zm9.63 8.95-6.91-6.54h6.91v6.54zm-2.15 2.91h-7.7v-7.53h.55v7.02h7.15v.51zM25.95 23l-.28.59-.29-.59h-.24l.42.78v.46h.21v-.46l.42-.78h-.24zm.36 1.24.1-.3h.48l.1.3h.22l-.47-1.24h-.19l-.47 1.24h.23zm.34-.98.18.52h-.36l.18-.52zm1.13.49a.32.32 0 0 0 .06.41c.08.06.18.1.3.1s.23-.04.31-.1l.07.08h.24l-.18-.22c.07-.1.1-.22.1-.37h-.17c0 .08-.02.16-.05.23l-.24-.29.08-.06c.06-.04.1-.08.13-.13s.04-.09.04-.14c0-.08-.03-.14-.09-.2s-.13-.08-.22-.08c-.1 0-.18.03-.24.09s-.08.13-.08.23c0 .04 0 .08.02.12l.1.16a.73.73 0 0 0-.18.17zm.56.27a.32.32 0 0 1-.2.07c-.06 0-.1-.02-.14-.05s-.06-.09-.06-.14c0-.07.03-.13.1-.18l.03-.02.27.32zm-.22-.55c-.06-.07-.09-.13-.09-.18 0-.04.01-.07.04-.1s.05-.04.1-.04l.09.03c.03.02.03.05.03.09 0 .04-.02.08-.05.12l-.03.02-.1.06zm2.01.67a.45.45 0 0 0 .15-.3h-.22c0 .08-.04.15-.08.18s-.1.06-.19.06c-.1 0-.16-.03-.21-.1s-.07-.18-.07-.31v-.11c0-.13.03-.23.07-.3s.13-.1.22-.1c.08 0 .14.02.18.06s.07.1.08.19h.22c-.02-.14-.07-.24-.15-.32s-.2-.1-.33-.1c-.1 0-.19.02-.27.06s-.13.12-.17.21a.73.73 0 0 0-.07.3v.12c0 .12.03.22.07.3s.1.16.17.2c.08.05.16.07.26.07a.5.5 0 0 0 .34-.1zm1.26-.17c.04-.1.06-.2.06-.32v-.07c0-.12-.02-.22-.06-.31s-.1-.17-.18-.21c-.08-.05-.17-.08-.27-.08s-.19.03-.27.08c-.07.05-.13.12-.18.2s-.06.2-.06.33v.07c0 .12.02.22.06.31a.47.47 0 0 0 .45.28c.1 0 .2-.02.27-.07s.14-.12.18-.21zm-.23-.7c.05.07.08.18.08.32v.06c0 .14-.03.25-.08.32s-.12.1-.22.1c-.09 0-.16-.03-.22-.1s-.08-.18-.08-.32v-.07c0-.13.03-.23.08-.3s.13-.12.22-.12c.1 0 .17.04.22.11z"/>
    </symbol>
    <symbol id="icon-windows" viewBox="0 0 59 32">
      <path d="M28.56 7.63H28.14a8.43 8.43 0 0 0-.45 0 9.85 9.85 0 0 0-3.66.93l-.15.08v7.7l.35-.12a11.95 11.95 0 0 1 3.8-.66v1l-.38.02h-.03a11.17 11.17 0 0 0-4.74 1.34V8.04a10.33 10.33 0 0 1 5.26-1.43h.15a9.08 9.08 0 0 1 1.78.23v1a8 8 0 0 0-1.23-.2h-.28zm1.75 1.02.69.02a10.94 10.94 0 0 0 5.26-1.35v9.7a10.37 10.37 0 0 1-7.2 1.2V8.46a9.12 9.12 0 0 0 1.25.19zm4.94.07-.35.12c-.32.11-.65.2-.98.3a11.93 11.93 0 0 1-3.57.35l-.28-.02v7.92l.24.02.69.03a9.33 9.33 0 0 0 4.1-.94l.15-.07v-7.7zM23.56 21.3a.53.53 0 0 0-.4-.17.58.58 0 0 0-.22.05.52.52 0 0 0-.29.29.58.58 0 0 0-.04.22V23c0 .09.02.18.06.27.03.07.07.13.13.17.05.05.11.08.18.1.06.02.13.03.2.03a.55.55 0 0 0 .55-.55v-.16h-.35V23l-.02.12a.2.2 0 0 1-.05.07.22.22 0 0 1-.08.04.22.22 0 0 1-.07.01l-.09-.01a.15.15 0 0 1-.07-.06.32.32 0 0 1-.04-.18v-1.23c0-.06 0-.13.04-.2a.17.17 0 0 1 .17-.07.18.18 0 0 1 .15.07c.04.05.06.12.06.18v.11h.34v-.13a.63.63 0 0 0-.16-.42zM25.61 21.28a.61.61 0 0 0-.6-.11.54.54 0 0 0-.32.3.6.6 0 0 0-.04.25v1.26c0 .1.01.18.05.26.03.07.07.13.13.18.05.05.12.09.18.11a.6.6 0 0 0 .41 0c.07-.03.14-.06.2-.11s.09-.11.12-.18a.6.6 0 0 0 .05-.26v-1.26a.57.57 0 0 0-.18-.44zm-.16 1.7-.01.1a.23.23 0 0 1-.06.09.25.25 0 0 1-.32 0 .23.23 0 0 1-.07-.19v-1.26l.01-.1a.23.23 0 0 1 .06-.09.25.25 0 0 1 .32 0 .23.23 0 0 1 .07.19v1.26zM28.3 23.55v-2.4h-.33l-.44 1.27-.44-1.27h-.33v2.4h.34v-1.46l.34 1.03h.17l.34-1.03v1.46h.35zM30.25 21.32a.48.48 0 0 0-.2-.13.75.75 0 0 0-.25-.04h-.5v2.4h.34v-.94h.17c.1 0 .21-.02.31-.06a.58.58 0 0 0 .27-.4c0-.08.02-.18.01-.27 0-.11 0-.23-.03-.34a.5.5 0 0 0-.13-.22zm-.18.73c0 .04-.01.09-.03.13a.2.2 0 0 1-.09.08.34.34 0 0 1-.16.03h-.16v-.82h.18l.15.03a.2.2 0 0 1 .08.1c.02.03.03.08.03.13v.32zM31.86 21.15h-.28l-.52 2.4h.34l.1-.52h.46l.1.52h.34l-.54-2.4zm-.31 1.56.17-.87.17.87h-.34zM34.07 22.6l-.52-1.45h-.33v2.4h.34V22.1l.53 1.44h.32v-2.4h-.34v1.44zM36.16 21.15l-.28.96-.28-.96h-.36l.47 1.39v1h.34v-1l.47-1.39h-.36zM22.6 24.22h.17v.47h.12v-.47h.16v-.1h-.44v.1zM24 24.13l-.22.56h.11l.05-.13h.22l.05.13h.12l-.22-.56h-.12zm-.03.34.08-.21.08.2h-.15zM25.36 24.48h.13v.07a.21.21 0 0 1-.13.05l-.07-.01a.15.15 0 0 1-.05-.04.23.23 0 0 1-.04-.15c0-.12.05-.18.16-.18.02 0 .05 0 .07.02s.04.04.05.07l.11-.03c-.02-.1-.1-.16-.23-.16a.28.28 0 0 0-.2.07.28.28 0 0 0-.08.22c0 .07.02.15.07.2a.27.27 0 0 0 .21.09c.09 0 .18-.03.24-.1v-.21h-.24v.1zM26.76 24.13h-.12v.56h.4v-.1h-.28v-.46zM27.94 24.13h-.12v.56h.12v-.56zM29.1 24.5l-.24-.37h-.1v.56h.1v-.37l.22.37h.12v-.56h-.1v.37zM30.14 24.44h.27v-.1h-.27v-.12h.3v-.1h-.42v.57h.42v-.1h-.3v-.15zM32.66 24.35h-.21v-.22h-.12v.56h.12v-.25h.21v.25h.12v-.56h-.12v.22zM33.72 24.44h.27v-.1h-.27v-.12h.3v-.1h-.42v.57h.42v-.1h-.3v-.15zM35.14 24.44c.1-.01.14-.07.14-.15v-.07c0-.02-.03-.04-.05-.06a.31.31 0 0 0-.16-.03h-.24v.56h.11v-.24h.03c.02 0 .04 0 .07.02l.04.04.12.17h.13l-.07-.1a.4.4 0 0 0-.12-.14zm-.11-.08h-.09v-.14h.1c.03 0 .07 0 .1.02l.02.02.01.04a.07.07 0 0 1-.03.05.31.31 0 0 1-.11.01zM36.21 24.44h.28v-.1h-.28v-.12h.3v-.1h-.41v.57h.42v-.1h-.3v-.15z"/>
    </symbol>
    <symbol id="icon-circle" viewBox="0 0 59 32">
      <path d="m23.8 22.64.02.01.08.08a.63.63 0 0 1-.21.14c-.1.03-.2.05-.3.04a.8.8 0 0 1-.3-.04.58.58 0 0 1-.35-.33.66.66 0 0 1-.04-.26.6.6 0 0 1 .2-.46c.06-.06.14-.1.22-.13a.9.9 0 0 1 .57 0c.07.02.14.06.2.11l-.06.08-.02.01h-.05l-.03-.02-.05-.03-.06-.02a.63.63 0 0 0-.41 0 .45.45 0 0 0-.27.25.52.52 0 0 0-.04.2c0 .08 0 .15.03.22l.1.15c.05.04.1.08.17.1a.75.75 0 0 0 .31.03.47.47 0 0 0 .25-.11l.03-.02zM25.98 22.28c0 .09-.01.17-.05.26a.6.6 0 0 1-.37.33.92.92 0 0 1-.57 0 .66.66 0 0 1-.22-.13.59.59 0 0 1-.15-.2.67.67 0 0 1 0-.52.6.6 0 0 1 .15-.2c.06-.06.14-.1.22-.13a.9.9 0 0 1 .58 0c.08.03.16.08.22.13s.11.13.14.2c.04.09.06.17.05.26zm-.2 0a.54.54 0 0 0-.03-.2.42.42 0 0 0-.26-.26.67.67 0 0 0-.42 0 .46.46 0 0 0-.16.1.41.41 0 0 0-.1.15.6.6 0 0 0 0 .42.41.41 0 0 0 .26.25c.13.04.28.04.42 0a.44.44 0 0 0 .16-.1c.04-.04.08-.1.1-.15a.54.54 0 0 0 .03-.21zM27.48 22.5l.02.04.02-.04.03-.05.48-.76.03-.03H28.24v1.24h-.17V21.91l-.49.77-.03.03a.07.07 0 0 1-.04.01h-.02l-.05-.01c-.02-.01-.02-.02-.02-.03l-.5-.78v1h-.17v-1.24H26.93l.03.03.5.76.02.05zM29.3 22.43v.47h-.19v-1.24h.42c.08 0 .16 0 .24.02l.17.08.1.12c.01.05.03.1.02.16a.35.35 0 0 1-.13.29.48.48 0 0 1-.17.08.8.8 0 0 1-.23.03h-.23zm0-.13h.23c.05 0 .1 0 .15-.02a.31.31 0 0 0 .1-.05.24.24 0 0 0 .09-.19c0-.03 0-.07-.02-.1l-.06-.09a.4.4 0 0 0-.26-.06h-.23v.5zM31.85 22.9h-.15l-.04-.01a.09.09 0 0 1-.03-.03l-.12-.3h-.65l-.14.3-.02.03a.07.07 0 0 1-.04.01h-.15l.56-1.24h.2l.58 1.24zm-.94-.46h.54l-.23-.5a.96.96 0 0 1-.04-.13l-.02.07-.02.05-.23.5zM32.67 21.66l.03.02.83.94v-.96h.17v1.24h-.14c-.02 0-.02-.02-.03-.03l-.82-.94v.98h-.17v-1.25h.1a.1.1 0 0 1 .03 0zM35.1 22.4v.5h-.2v-.5l-.52-.74H34.6l.03.04.33.48.03.06a.6.6 0 0 1 .03.05l.02-.05a.4.4 0 0 1 .03-.06l.32-.49a.1.1 0 0 1 .03-.02c.01-.01.03-.02.04-.01h.17l-.52.75zM27.39 19.57l.25.02c1.28-.5 2.36-1.31 3.1-2.34s1.14-2.23 1.11-3.44l-1.4-1.23c.28 1.3.15 2.64-.4 3.87s-1.46 2.31-2.67 3.12z"/>
      <path d="M26.88 19.51h.04c1.29-.8 2.27-1.91 2.82-3.2s.64-2.7.26-4.03l-2-1.75c.8 1.44 1.13 3.04.93 4.63s-.9 3.1-2.05 4.35zM33.7 15.24a6.27 6.27 0 0 1-2.37 3.44c-.35.27-.72.5-1.12.7.97-.24 1.86-.68 2.6-1.28s1.33-1.33 1.7-2.15l-.82-.7z"/>
      <path d="m33.37 15.05-1.16-1.01c-.02 1.15-.4 2.27-1.08 3.25s-1.68 1.78-2.84 2.32c.26 0 .52-.01.78-.04 1.1-.38 2.06-1 2.8-1.79s1.27-1.73 1.5-2.73zM27.05 9.8l-1.39-1.2c-1.23.4-2.3 1.14-3.05 2.09s-1.15 2.07-1.16 3.22c0 1.27.5 2.51 1.4 3.51s2.17 1.72 3.6 2.02c1.26-1.34 2-3 2.11-4.73s-.42-3.46-1.51-4.92zM36.57 14.86c0-1.5-.7-2.96-1.93-4.02s-2.9-1.67-4.63-1.68c-.8 0-1.6.13-2.35.38l8.47 7.36c.3-.65.44-1.34.44-2.04z"/>
    </symbol>
    <symbol id="icon-foster-peters" viewBox="0 0 57 32">
      <path d="M19.25 11.87c-.77 0-1.4.56-1.4 1.24 0 .68.63 1.23 1.4 1.23.76 0 1.39-.55 1.39-1.23 0-.68-.63-1.24-1.4-1.24zM29.5 11.48c0-.95-.42-1.86-1.18-2.53s-1.77-1.04-2.84-1.05c-1.07 0-2.09.38-2.84 1.05s-1.18 1.58-1.18 2.53v5.22s8.04-.8 8.04-5.22zM15.04 18.42c0 .65.3 1.29.82 1.75a3.02 3.02 0 0 0 3.95 0c.53-.46.82-1.1.83-1.75v-3.64s-5.6.56-5.6 3.64zm2.8.65a.74.74 0 0 1-.68-.4c-.05-.12-.07-.26-.04-.38s.1-.24.2-.33c.1-.1.23-.16.38-.18s.28-.01.42.03c.13.05.25.14.33.24a.59.59 0 0 1 .07.62.66.66 0 0 1-.16.2c-.07.07-.15.12-.24.15s-.19.05-.28.05zM23.5 18.7h-.55v.57h-.28V17.9h.9v.23h-.62v.35h.54v.23zm1.35-.09c0 .14-.03.26-.08.36s-.11.18-.2.23a.56.56 0 0 1-.3.08c-.12 0-.22-.02-.3-.08s-.16-.13-.21-.23a.8.8 0 0 1-.08-.35v-.07c0-.13.03-.25.08-.35s.11-.18.2-.23c.09-.06.2-.09.3-.09s.22.03.3.09c.1.05.16.13.21.23s.08.22.08.35v.06zm-.29-.06c0-.14-.02-.25-.08-.32s-.12-.12-.22-.12c-.09 0-.16.04-.21.12s-.08.18-.08.32v.07c0 .14.02.24.08.32s.12.12.22.12.16-.04.21-.12.08-.18.08-.32v-.07zm1.2.36c0-.05-.02-.1-.06-.12s-.1-.06-.2-.1l-.23-.09c-.16-.08-.24-.2-.24-.34 0-.07.03-.14.07-.2s.1-.1.18-.13a.69.69 0 0 1 .52 0c.07.04.13.09.18.15s.06.14.06.22h-.28c0-.06-.02-.1-.06-.14s-.1-.05-.17-.05-.12.01-.16.04-.05.07-.05.11c0 .05.02.09.06.12s.12.05.2.08c.16.05.28.1.35.18s.11.16.11.27c0 .11-.04.2-.13.27s-.21.1-.36.1c-.1 0-.2-.02-.29-.05s-.15-.1-.2-.16a.4.4 0 0 1-.07-.23h.29c0 .15.09.22.27.22.06 0 .11-.01.15-.04s.06-.06.06-.11zm1.5-.78h-.42v1.14h-.28v-1.14h-.41v-.23h1.11v.23zm.98.55h-.54v.36h.64v.23h-.92V17.9h.91v.23h-.63v.33h.54v.22zm.77.09h-.23v.5h-.28V17.9h.5c.17 0 .3.04.38.11s.13.17.13.3c0 .1-.02.18-.06.24s-.1.1-.18.15l.3.55v.02h-.31l-.26-.5zm-.23-.23h.23c.07 0 .12-.02.16-.05s.06-.09.06-.15c0-.07-.02-.12-.06-.16s-.09-.05-.16-.05h-.23v.41zm1.7.25v.48h-.27V17.9h.53c.1 0 .19.02.27.06a.42.42 0 0 1 .24.4c0 .13-.05.23-.14.3s-.22.12-.38.12h-.25zm0-.23h.26c.07 0 .13-.02.17-.06s.06-.08.06-.15c0-.06-.02-.12-.06-.16s-.1-.06-.17-.06h-.25v.43zm1.79.12h-.55v.36h.64v.23h-.92V17.9h.92v.23h-.64v.33h.54v.22zm1.3-.55h-.42v1.14h-.28v-1.14h-.41v-.23h1.11v.23zm.98.55h-.54v.36h.64v.23h-.92V17.9h.91v.23h-.63v.33h.54v.22zm.77.09h-.23v.5h-.28V17.9h.5c.17 0 .3.04.38.11s.13.17.13.3c0 .1-.02.18-.06.24s-.1.1-.18.15l.3.55v.02h-.3l-.26-.5zm-.23-.23h.23c.07 0 .12-.02.16-.05s.06-.09.06-.15c0-.07-.02-.12-.05-.16s-.1-.05-.17-.05h-.23v.41zm1.65.37c0-.05-.01-.1-.05-.12s-.1-.06-.2-.1l-.24-.09c-.15-.08-.23-.2-.23-.34 0-.07.02-.14.06-.2s.1-.1.18-.13a.69.69 0 0 1 .53 0c.07.04.13.09.17.15s.07.14.07.22h-.28c0-.06-.02-.1-.06-.14s-.1-.05-.17-.05-.12.01-.16.04-.06.07-.06.11c0 .05.03.09.07.12s.11.05.2.08c.16.05.28.1.35.18s.1.16.1.27c0 .11-.04.2-.12.27s-.21.1-.37.1c-.1 0-.2-.02-.28-.05s-.15-.1-.2-.16a.4.4 0 0 1-.07-.23h.28c0 .15.1.22.27.22.07 0 .12-.01.16-.04s.06-.06.06-.11z"/>
    </symbol>
    <symbol id="icon-brand" viewBox="0 0 59 32">
      <path d="M20.44 21.13c.08.1.13.21.12.34 0 .08 0 .16-.04.23s-.09.14-.15.2a.92.92 0 0 1-.58.15h-1V19.9h.98a.9.9 0 0 1 .55.14c.06.05.11.11.15.18s.05.15.04.22c0 .12-.03.24-.11.33a.54.54 0 0 1-.3.17c.13.02.25.09.34.18zm-1.19-.33h.43c.1 0 .19-.02.26-.07a.25.25 0 0 0 .1-.21c0-.04 0-.08-.02-.12l-.07-.1a.44.44 0 0 0-.28-.07h-.42v.57zm.74.83c.03-.03.06-.06.07-.1s.03-.08.03-.12c0-.05 0-.09-.03-.12l-.08-.1a.47.47 0 0 0-.28-.08h-.45v.59h.45c.1 0 .2-.02.29-.07zM22.46 22.05l-.55-.84h-.2v.84h-.48V19.9h.9c.22-.02.44.05.62.18.12.12.2.27.21.43s-.04.33-.14.46a.75.75 0 0 1-.43.22l.58.86h-.51zm-.76-1.13h.39c.27 0 .4-.11.4-.33 0-.04 0-.09-.02-.13s-.04-.08-.08-.11a.44.44 0 0 0-.3-.09h-.4l.01.66zM25.05 21.62h-.95l-.16.43h-.5l.87-2.13h.53l.87 2.13h-.5l-.16-.43zm-.13-.33-.34-.9-.35.9h.69zM28.29 22.05h-.47l-1.06-1.46v1.46h-.47V19.9h.47l1.06 1.47V19.9h.47v2.15zM30.97 21.54c-.1.16-.25.3-.43.38-.2.1-.43.14-.66.13h-.84V19.9h.84c.23 0 .46.04.66.13.18.08.33.21.43.38a1.16 1.16 0 0 1 0 1.13zm-.54-.06a.75.75 0 0 0 0-1.03.87.87 0 0 0-.59-.18h-.32v1.4h.32c.22 0 .43-.06.59-.19zM25.34 7.92s6.07 2.1 5.94 5.13v5.13s-6.06-2.1-5.94-5.13V7.92zM36.68 16.98a8.8 8.8 0 0 1 3.86-1.3v-1.6a7.79 7.79 0 0 0-3.86 2.9z"/>
      <path d="M36 17.46a8.03 8.03 0 0 1 4.54-3.72V9.1s-8.64 2.98-8.46 7.3v7.31s.39-.13.99-.38a7.4 7.4 0 0 1 2.92-5.87z"/>
      <path d="M35.17 20.18c.05-.5.15-1.01.3-1.5a6.76 6.76 0 0 0-1.83 4.42c.5-.22 1.07-.49 1.67-.8-.16-.7-.2-1.41-.14-2.12zM35.52 20.2c-.06.64-.03 1.29.1 1.92 2.36-1.3 5.01-3.29 4.91-5.7v-.21a8.07 8.07 0 0 0-4.49 1.92 6.71 6.71 0 0 0-.52 2.08z"/>
    </symbol>
    <symbol id="icon-square" viewBox="0 0 59 32">
      <path d="M29.71 15.1c-.15-.2-.22-.45-.2-.7v-1c0-.3.06-.54.2-.7s.38-.24.72-.24c.32 0 .55.07.68.2.14.18.22.4.2.6v.24h-.57v-.24c0-.07 0-.15-.02-.23 0-.05-.04-.1-.08-.14a.33.33 0 0 0-.2-.05.35.35 0 0 0-.22.05.27.27 0 0 0-.1.16c-.02.08-.02.16-.02.24v1.22c-.01.12.01.24.07.34a.29.29 0 0 0 .26.1c.08.01.15 0 .2-.05.05-.04.08-.1.09-.15l.02-.24v-.25h.57v.23a.92.92 0 0 1-.2.63c-.13.15-.35.22-.68.22s-.58-.08-.72-.24zM32.09 15.1c-.15-.15-.22-.37-.22-.68v-1.05c0-.3.07-.52.22-.68s.38-.23.72-.23c.34 0 .58.08.72.23s.22.38.22.68v1.05c0 .3-.07.53-.22.69s-.39.23-.72.23c-.33 0-.58-.08-.72-.23zm.99-.24a.6.6 0 0 0 .07-.32v-1.29c0-.1-.02-.2-.07-.3-.03-.04-.07-.07-.12-.09s-.1-.02-.15-.02c-.05 0-.1 0-.15.02s-.09.05-.12.09c-.05.1-.07.2-.06.3v1.3c-.01.1.01.21.06.31.04.04.08.06.12.08s.1.03.15.03l.15-.03a.34.34 0 0 0 .12-.08zM34.44 12.5h.61l.46 1.94.48-1.95h.6l.05 2.81h-.44l-.05-1.95-.45 1.95h-.36l-.47-1.96-.04 1.96h-.45l.06-2.8zM37.33 12.5h.96c.55 0 .83.26.83.8 0 .5-.3.76-.87.76h-.33v1.24h-.6l.01-2.8zm.82 1.2a.46.46 0 0 0 .33-.1c.06-.09.1-.2.08-.31 0-.09 0-.17-.03-.25 0-.03-.02-.06-.04-.08l-.08-.06a.62.62 0 0 0-.26-.04h-.23v.84h.23zM39.97 12.5h.63l.65 2.8h-.55l-.13-.64h-.56l-.13.64h-.56l.65-2.8zm.54 1.83-.22-1.18-.22 1.18h.44zM41.78 12.5h.41l.8 1.6v-1.6h.49v2.8h-.4l-.8-1.67v1.67h-.5v-2.8zM44.62 14.23l-.65-1.73h.55l.4 1.11.38-1.11h.54l-.65 1.73v1.07h-.56v-1.07zM30.63 16.53v.15h-.49v1.14h-.2v-1.14h-.48v-.15h1.17zM32.14 17.82h-.16l-.04-.01a.06.06 0 0 1-.03-.03l-.14-.3h-.67l-.14.3c0 .01 0 .02-.02.03a.07.07 0 0 1-.04.02h-.16l.6-1.3h.2l.6 1.3zm-.98-.48h.56l-.24-.52a1.1 1.1 0 0 1-.04-.12l-.03.07-.02.05-.23.52zM33.16 17.7h.1a.75.75 0 0 0 .27-.07v-.3h-.27l-.01-.02v-.1h.45v.49a.82.82 0 0 1-.25.1 1.2 1.2 0 0 1-.61-.01.73.73 0 0 1-.24-.14.6.6 0 0 1-.2-.47c0-.09.01-.18.05-.27.03-.07.08-.14.15-.2s.15-.1.23-.13a1 1 0 0 1 .49-.04.85.85 0 0 1 .25.08l.1.07-.05.08a.06.06 0 0 1-.05.02h-.03a.48.48 0 0 1-.06-.04.56.56 0 0 0-.19-.06.84.84 0 0 0-.38.02.45.45 0 0 0-.28.26.6.6 0 0 0 0 .44.5.5 0 0 0 .3.26c.07.02.15.03.22.03zM35.04 17.67h.64v.15h-.84v-1.29h.2v1.14zM36.35 17.82h-.2v-1.29h.2v1.3zM37.1 16.54a.1.1 0 0 1 .04.02l.86.97v-1h.18v1.3h-.1a.1.1 0 0 1-.05-.02.13.13 0 0 1-.03-.02l-.86-.97v1h-.17v-1.29h.1a.1.1 0 0 1 .04 0zM39.66 16.53v.15h-.71v.42h.58v.14h-.58v.44h.71v.14h-.92v-1.29h.92zM18.5 8.58l8.96 2.2v7.7l-8.97-2.2v-7.7zm-.58-.66v8.74l10.12 2.48V10.4L17.92 7.92z"/>
      <path d="M23.34 23.2 13.22 20.7v-8.74l10.12 2.49v8.74z"/>
      <path d="m18.08 8.48 8.86 2.17-3.77 3.25-8.85-2.17 3.76-3.25zm-.16-.56-4.7 4.05 10.12 2.49 4.7-4.06-10.12-2.48zM23.91 22.7l4.13-3.56-4.13-1.01v4.58z"/>
    </symbol>
  </defs>
</svg>
